<mxfile host="app.diagrams.net" agent="Mozilla/5.0 (Macintosh; Intel Mac OS X 10_15_7) AppleWebKit/537.36 (KHTML, like Gecko) Chrome/138.0.0.0 Safari/537.36" version="28.0.7">
  <diagram name="Page-1" id="AbUgg4t9xm5RcOP1aoXZ">
    <mxGraphModel dx="706" dy="776" grid="1" gridSize="10" guides="1" tooltips="1" connect="1" arrows="1" fold="1" page="1" pageScale="1" pageWidth="827" pageHeight="1169" math="0" shadow="0">
      <root>
        <mxCell id="0" />
        <mxCell id="1" parent="0" />
        <mxCell id="WT3QU0EIKicXrWnQ-oaZ-3" style="edgeStyle=orthogonalEdgeStyle;rounded=0;orthogonalLoop=1;jettySize=auto;html=1;entryX=0;entryY=0.5;entryDx=0;entryDy=0;" edge="1" parent="1" source="k7nX_q8Goyv_tYFvlVki-4" target="k7nX_q8Goyv_tYFvlVki-5">
          <mxGeometry relative="1" as="geometry" />
        </mxCell>
        <mxCell id="k7nX_q8Goyv_tYFvlVki-4" value="&lt;font style=&quot;font-size: 17px;&quot; face=&quot;Times New Roman&quot;&gt;&lt;b style=&quot;&quot;&gt;Hàm băm&lt;/b&gt;&lt;/font&gt;" style="shape=trapezoid;perimeter=trapezoidPerimeter;whiteSpace=wrap;html=1;fixedSize=1;" parent="1" vertex="1">
          <mxGeometry x="350" y="310" width="190" height="90" as="geometry" />
        </mxCell>
        <mxCell id="k7nX_q8Goyv_tYFvlVki-5" value="&lt;div&gt;&lt;font style=&quot;font-size: 15px;&quot; face=&quot;Times New Roman&quot;&gt;10001001011101 .... 101101&lt;/font&gt;&lt;/div&gt;&lt;font style=&quot;font-size: 15px;&quot; face=&quot;Times New Roman&quot;&gt;Giá trị băm có kích thước cố định&lt;/font&gt;" style="text;html=1;align=center;verticalAlign=middle;whiteSpace=wrap;rounded=0;fontStyle=1" parent="1" vertex="1">
          <mxGeometry x="580" y="329" width="180" height="52" as="geometry" />
        </mxCell>
        <mxCell id="WT3QU0EIKicXrWnQ-oaZ-2" style="edgeStyle=orthogonalEdgeStyle;rounded=0;orthogonalLoop=1;jettySize=auto;html=1;" edge="1" parent="1" source="WT3QU0EIKicXrWnQ-oaZ-1" target="k7nX_q8Goyv_tYFvlVki-4">
          <mxGeometry relative="1" as="geometry" />
        </mxCell>
        <mxCell id="WT3QU0EIKicXrWnQ-oaZ-1" value="&lt;font style=&quot;font-size: 16px;&quot; face=&quot;Times New Roman&quot;&gt;&lt;b style=&quot;&quot;&gt;Thông điệp có độ dài tuỳ ý&lt;/b&gt;&lt;/font&gt;" style="shape=note;whiteSpace=wrap;html=1;backgroundOutline=1;darkOpacity=0.05;" vertex="1" parent="1">
          <mxGeometry x="170" y="305" width="116" height="100" as="geometry" />
        </mxCell>
      </root>
    </mxGraphModel>
  </diagram>
</mxfile>
